<?xml version="1.0" encoding="UTF-8" standalone="no"?>
<!-- Created with Inkscape (http://www.inkscape.org/) -->

<svg
   width="1000"
   height="1000"
   viewBox="0 0 264.58333 264.58333"
   version="1.1"
   id="svg1"
   xml:space="preserve"
   inkscape:version="1.4.2 (f4327f4, 2025-05-13)"
   sodipodi:docname="Approusouf logo_V2.svg"
   xmlns:inkscape="http://www.inkscape.org/namespaces/inkscape"
   xmlns:sodipodi="http://sodipodi.sourceforge.net/DTD/sodipodi-0.dtd"
   xmlns="http://www.w3.org/2000/svg"
   xmlns:svg="http://www.w3.org/2000/svg"><sodipodi:namedview
     id="namedview1"
     pagecolor="#bdbdbd"
     bordercolor="#000000"
     borderopacity="0"
     inkscape:showpageshadow="2"
     inkscape:pageopacity="0.0"
     inkscape:pagecheckerboard="0"
     inkscape:deskcolor="#ffffff"
     inkscape:document-units="mm"
     showgrid="true"
     inkscape:zoom="0.56390993"
     inkscape:cx="525.79319"
     inkscape:cy="447.76654"
     inkscape:window-width="1440"
     inkscape:window-height="877"
     inkscape:window-x="-8"
     inkscape:window-y="-8"
     inkscape:window-maximized="1"
     inkscape:current-layer="layer1"><inkscape:grid
       id="grid1"
       units="mm"
       originx="0"
       originy="0"
       spacingx="0.99999999"
       spacingy="0.99999999"
       empcolor="#0099e5"
       empopacity="0.30196078"
       color="#0099e5"
       opacity="0.14901961"
       empspacing="5"
       enabled="true"
       visible="true" /></sodipodi:namedview><defs
     id="defs1" /><g
     inkscape:label="Layer 1"
     inkscape:groupmode="layer"
     id="layer1"><g
       id="g14"
       transform="matrix(1.1165118,0,0,1.1165118,-39.807004,-48.641886)"><g
         id="g11"
         style="opacity:1;fill:#52b734;fill-opacity:1"
         transform="matrix(0.31707963,0,0,0.31707963,37.881956,98.097652)"><path
           id="path9"
           style="opacity:1;fill:#52b734;fill-opacity:1;stroke:none;stroke-width:1.32292;stroke-linejoin:round;stroke-dashoffset:50.1984;paint-order:fill markers stroke"
           d="m 172.69775,61.51807 c -4.88128,0.04522 -10.19756,0.731952 -15.69756,2.481953 -22,6.999999 -27.00022,19.999864 -27.00022,19.999864 0,0 -13.99981,-17.999992 -27.99981,-20.999991 C 88.000158,59.999897 67.999903,61.999869 61.999902,66.999869 L 96.99953,91.000238 c 0,0 -27.999323,-4.000188 -40.999321,27.999812 l 30.999655,-1.00013 c 0,0 11.368551,-8.93201 15.080136,-9.96666 l -27.080054,0.96659 c 0,0 24.999827,-23.999778 44.999824,6.00022 0,0 -42.607644,-3.48103 -44.999824,38.00001 l 27.999814,-9.00007 4.0005,-11.99992 -15.99989,4.99957 c 0,0 9.99968,-15.99939 26.99968,-11.99939 0.65684,0.15455 1.26592,0.29712 1.82993,0.42848 l -29.201664,73.57129 h 16.371944 l 10.99979,-28.99994 h 23.99984 l 11.99992,28.99994 h 15.99989 l -27.59902,-73.99977 c 0,0 4.58105,-4.86873 17.59935,2.56552 13.0183,7.43425 9.99967,9.78729 9.99967,9.78729 l -16.99949,-5.35299 5.0001,11.99992 L 185,152.78026 c 0,0 -1.80884,-24.58674 -20.0004,-32.78009 -18.19156,-8.19335 -23.9993,-5.0001 -23.9993,-5.0001 0,0 1.99973,-10.00004 18.99973,-13.00004 17,-3.000005 24.99997,6.00023 24.99997,6.00023 h -29.00047 c 0,0 9.00085,2.99956 11.00085,4.99956 2,2 6.99982,6.00023 6.99982,6.00023 h 29.99953 c 0,0 -6.00001,-16.00012 -17.00001,-22.000119 -11,-6.000002 -23.99984,-5.999693 -23.99984,-5.999693 l 35.06723,-23.982804 c 0,0 -10.72553,-5.635029 -25.36936,-5.499364 z m -74.971145,7.270742 c 19.123825,0.637462 25.923445,24.435762 25.923445,24.435762 L 82.450062,72.624848 c 5.793727,-2.896864 10.863352,-3.983142 15.276543,-3.836036 z m 67.296945,0 c 4.41319,-0.147106 9.48282,0.939172 15.27654,3.836036 l -41.19998,20.599726 c 0,0 6.79961,-23.7983 25.92344,-24.435762 z m -62.40436,39.148108 c -0.15423,0.006 -0.33473,0.0392 -0.53812,0.0958 l 0.91869,-0.0325 c -0.0988,-0.0494 -0.22634,-0.0696 -0.38057,-0.0633 z m 25.38053,31.06299 h 4.0005 l 4.99957,15.99989 h -13.99964 z" /><path
           style="fill:#52b734;fill-opacity:1;stroke:none;stroke-width:1.32292;stroke-linejoin:round;stroke-dashoffset:50.1984;paint-order:fill markers stroke"
           d="m 138,176 h -16 l -7,23 h 30 z"
           id="path10" /></g><text
         xml:space="preserve"
         style="font-style:normal;font-variant:normal;font-weight:bold;font-stretch:normal;font-size:28.6506px;font-family:Unispace;-inkscape-font-specification:'Unispace Bold';text-align:start;writing-mode:lr-tb;direction:ltr;text-anchor:start;opacity:1;fill:#000000;fill-opacity:1;stroke:none;stroke-width:0.746112;stroke-linejoin:round;stroke-dashoffset:50.1984;paint-order:fill markers stroke"
         x="101.09529"
         y="160"
         id="text13"><tspan
           sodipodi:role="line"
           id="tspan13"
           style="font-style:normal;font-variant:normal;font-weight:bold;font-stretch:normal;font-family:Unispace;-inkscape-font-specification:'Unispace Bold';fill:#000000;fill-opacity:1;stroke-width:0.746112"
           x="101.09529"
           y="160">PPRO</tspan></text><text
         xml:space="preserve"
         style="font-style:normal;font-variant:normal;font-weight:bold;font-stretch:normal;font-size:28.8636px;font-family:Unispace;-inkscape-font-specification:'Unispace Bold';text-align:start;writing-mode:lr-tb;direction:ltr;text-anchor:start;opacity:1;fill:#fa0000;fill-opacity:1;stroke:none;stroke-width:0.751658;stroke-linejoin:round;stroke-dashoffset:50.1984;paint-order:fill markers stroke"
         x="170"
         y="160"
         id="text14"><tspan
           sodipodi:role="line"
           id="tspan14"
           style="font-style:normal;font-variant:normal;font-weight:bold;font-stretch:normal;font-family:Unispace;-inkscape-font-specification:'Unispace Bold';fill:#fa0000;fill-opacity:1;stroke-width:0.751658"
           x="170"
           y="160">SOUF</tspan></text></g><text
       xml:space="preserve"
       style="font-style:normal;font-variant:normal;font-weight:normal;font-stretch:normal;font-size:15.072px;font-family:'Simplified Arabic Fixed';-inkscape-font-specification:'Simplified Arabic Fixed';text-align:start;writing-mode:lr-tb;direction:ltr;text-anchor:start;opacity:1;fill:#000000;fill-opacity:1;stroke:none;stroke-width:0.883126;stroke-linejoin:round;stroke-dashoffset:50.1984;paint-order:fill markers stroke"
       x="75.140869"
       y="146.07703"
       id="text15"><tspan
         sodipodi:role="line"
         id="tspan15"
         style="font-style:normal;font-variant:normal;font-weight:normal;font-stretch:normal;font-size:15.072px;font-family:'Simplified Arabic Fixed';-inkscape-font-specification:'Simplified Arabic Fixed';fill:#000000;fill-opacity:1;stroke-width:0.883126"
         x="75.140869"
         y="146.07703">Hotel services</tspan></text><g
       id="g16"
       transform="matrix(1.1165118,0,0,1.1165118,-16.002045,-9.4988473)"><path
         style="opacity:1;fill:#000000;fill-opacity:1;stroke:#060606;stroke-width:1.85208;stroke-linejoin:miter;stroke-dasharray:none;stroke-dashoffset:50.1984;stroke-opacity:1;paint-order:fill markers stroke"
         d="M 25,99.970833 V 74.970834 Z"
         id="path15" /><path
         style="opacity:1;fill:#000000;fill-opacity:1;stroke:#060606;stroke-width:1.85208;stroke-linejoin:miter;stroke-dasharray:none;stroke-dashoffset:50.1984;stroke-opacity:1;paint-order:fill markers stroke"
         d="m 23.970833,76.000001 h 25 z"
         id="path16" /></g><g
       id="g18"
       transform="matrix(-1.1165118,0,0,-1.1165118,267.23372,236.03605)"><path
         style="opacity:1;fill:#000000;fill-opacity:1;stroke:#060606;stroke-width:1.85208;stroke-linejoin:miter;stroke-dasharray:none;stroke-dashoffset:50.1984;stroke-opacity:1;paint-order:fill markers stroke"
         d="M 25,99.970833 V 74.970834 Z"
         id="path17" /><path
         style="opacity:1;fill:#000000;fill-opacity:1;stroke:#060606;stroke-width:1.85208;stroke-linejoin:miter;stroke-dasharray:none;stroke-dashoffset:50.1984;stroke-opacity:1;paint-order:fill markers stroke"
         d="m 23.970833,76.000001 h 25 z"
         id="path18" /></g></g></svg>
