<?xml version="1.0" encoding="UTF-8" standalone="no"?>
<!-- Created with Inkscape (http://www.inkscape.org/) -->

<svg
   width="1000"
   height="1000"
   viewBox="0 0 264.58333 264.58333"
   version="1.1"
   id="svg1"
   xml:space="preserve"
   inkscape:export-filename="bitmap.png"
   inkscape:export-xdpi="96"
   inkscape:export-ydpi="96"
   inkscape:version="1.4.2 (f4327f4, 2025-05-13)"
   sodipodi:docname="butique_safaV2.svg"
   xmlns:inkscape="http://www.inkscape.org/namespaces/inkscape"
   xmlns:sodipodi="http://sodipodi.sourceforge.net/DTD/sodipodi-0.dtd"
   xmlns:xlink="http://www.w3.org/1999/xlink"
   xmlns="http://www.w3.org/2000/svg"
   xmlns:svg="http://www.w3.org/2000/svg"><sodipodi:namedview
     id="namedview1"
     pagecolor="#ffffff"
     bordercolor="#000000"
     borderopacity="0.25"
     inkscape:showpageshadow="2"
     inkscape:pageopacity="0.0"
     inkscape:pagecheckerboard="0"
     inkscape:deskcolor="#d1d1d1"
     inkscape:document-units="mm"
     showgrid="true"
     inkscape:zoom="0.39874454"
     inkscape:cx="387.46612"
     inkscape:cy="455.17865"
     inkscape:window-width="1440"
     inkscape:window-height="877"
     inkscape:window-x="-8"
     inkscape:window-y="-8"
     inkscape:window-maximized="1"
     inkscape:current-layer="layer1"><inkscape:grid
       id="grid1"
       units="px"
       originx="0"
       originy="0"
       spacingx="0.26458333"
       spacingy="0.26458333"
       empcolor="#0099e5"
       empopacity="0.30196078"
       color="#0099e5"
       opacity="0.14901961"
       empspacing="5"
       enabled="true"
       visible="true" /></sodipodi:namedview><defs
     id="defs1"><linearGradient
       id="linearGradient23"
       inkscape:collect="always"><stop
         style="stop-color:#ff44d3;stop-opacity:0.77987421;"
         offset="0"
         id="stop24" /><stop
         style="stop-color:#ff3b08;stop-opacity:1;"
         offset="1"
         id="stop23" /></linearGradient><linearGradient
       inkscape:collect="always"
       xlink:href="#linearGradient23"
       id="linearGradient24"
       x1="81.960655"
       y1="121.42962"
       x2="179.16676"
       y2="104.28956"
       gradientUnits="userSpaceOnUse"
       spreadMethod="reflect"
       gradientTransform="translate(-1.3229186,-18.520837)" /></defs><g
     inkscape:label="Layer 1"
     inkscape:groupmode="layer"
     id="layer1"><path
       style="opacity:1;fill:url(#linearGradient24);stroke:none;stroke-width:1.32292;stroke-linecap:round;stroke-linejoin:round;stroke-dasharray:none;stroke-dashoffset:50.1984;stroke-opacity:1;paint-order:normal"
       d="m 92.604144,113.77091 c 0,0 -10.58333,5.29167 -10.58333,10.58333 0,5.29167 0,0 0,0 0,0 -0.79375,4.7625 0.52917,6.61459 1.32291,1.85208 0,0 0,0 0,0 3.43958,13.22916 32.543726,18.52083 29.10416,5.29166 0,0 0,0 0,0 25.13541,2.64583 43.65625,-9.26042 18.52083,-11.90625 0,0 0,0 0,0 19.84374,-9.26041 19.84374,-27.78125 0,-18.520837 -18.52083,-17.197907 -18.52083,-17.197907 0,0 9.58568,-5.77963 11.90625,-9.26047 7.82646,-9.31728 -2.98354,-19.703404 -11.90625,-18.520855 h -28.83958 l -0.26458,17.197925 c 0,0 -2.64584,-6.614596 -21.16667,-9.260426 -18.520806,-2.64584 0,0 0,0 0,0 -23.524066,-5.535239 -21.166646,-13.229169 2.026711,-6.614595 17.197936,-14.552094 17.197936,-14.552094 0,0 25.73101,-9.090204 43.65621,-3.968739 4.0202,-0.0011 26.45837,14.552072 23.8125,2.645833 -1.28343,-5.775379 -18.52083,-10.583333 -39.6875,-9.260416 -21.16667,1.322916 -43.656213,14.552072 -44.979146,15.874999 -0.935446,0.935442 -11.90625,9.260417 -7.9375,17.197916 3.96875,7.9375 29.104186,10.583322 34.395846,14.552076 3.81589,2.86191 16.13661,5.26221 17.19792,15.874997 1.32295,13.22908 -2.47593,24.24537 -11.90629,33.073 -14.55208,11.90625 0,0 0,0 0,0 14.15321,-2.77211 18.52084,-15.875 1.32295,-3.96884 1.05836,-5.82092 1.05836,-6.35009 0,-11.13895 0.44477,-26.936517 0.52914,-39.422903 h 14.2875 c 0,0 5.29166,0.79375 6.61458,2.11667 1.32291,1.32292 0,0 0,0 0,0 9.26041,5.29167 1.32291,15.875046 -1.19539,1.59386 -15.90127,7.93754 -14.55208,7.93753 11.90629,-9e-5 19.05004,7.937397 19.84379,10.583237 0,0 4.65923,16.1422 -10.58337,27.78134 -15.2426,11.63914 -42.33333,7.9375 -47.625,5.29167 -5.29167,-2.64584 0,0 0,0 0,0 -29.104146,-10.58333 -17.197896,-27.78125 z"
       id="path17"
       sodipodi:nodetypes="cscscscscscssccscscsssssssscssccscsscsscc" /><g
       id="g24"
       transform="translate(3.6666667e-8,-8.9958338)"><text
         xml:space="preserve"
         style="font-style:normal;font-variant:normal;font-weight:normal;font-stretch:normal;font-size:22.5778px;font-family:'MV Boli';-inkscape-font-specification:'MV Boli';text-align:start;writing-mode:lr-tb;direction:ltr;text-anchor:start;opacity:1;fill:#ff44d3;fill-opacity:1;stroke:none;stroke-width:1.32292;stroke-linecap:round;stroke-linejoin:round;stroke-dasharray:none;stroke-dashoffset:50.1984;stroke-opacity:1;paint-order:normal"
         x="55.562469"
         y="189.97084"
         id="text17"><tspan
           sodipodi:role="line"
           id="tspan17"
           style="font-style:normal;font-variant:normal;font-weight:normal;font-stretch:normal;font-family:'MV Boli';-inkscape-font-specification:'MV Boli';fill:#ff44d3;fill-opacity:1;stroke-width:1.32292"
           x="55.562469"
           y="189.97084">Boutique</tspan></text><text
         xml:space="preserve"
         style="font-style:normal;font-variant:normal;font-weight:normal;font-stretch:normal;font-size:22.5778px;font-family:'MV Boli';-inkscape-font-specification:'MV Boli';text-align:start;writing-mode:lr-tb;direction:ltr;text-anchor:start;opacity:1;fill:#ff3b08;fill-opacity:1;stroke:none;stroke-width:1.32292;stroke-linecap:round;stroke-linejoin:round;stroke-dasharray:none;stroke-dashoffset:50.1984;stroke-opacity:1;paint-order:normal"
         x="156.63365"
         y="189.97084"
         id="text18"><tspan
           sodipodi:role="line"
           id="tspan18"
           style="font-style:normal;font-variant:normal;font-weight:normal;font-stretch:normal;font-family:'MV Boli';-inkscape-font-specification:'MV Boli';stroke-width:1.32292"
           x="156.63365"
           y="189.97084">Safa</tspan></text></g></g></svg>
